<svg class="diagram-root" style="background: #f5f6f6" xmlns="http://www.w3.org/2000/svg" xmlns:xlink="http://www.w3.org/1999/xlink"><style>.diagram-root { font-family: "Helvetica Neue", sans-serif; font-size: 12px; } .t { overflow: visible; } .t-bg { y: 40; fill: #fff;   } .th { fill: #005aa0;   } .tht { fill: #fff; font-size: 14px;  } .tf { fill: #323c46; overflow: visible; } .tf.pk { fill: #005aa0; font-weight: bold; } .tf.fk { font-weight: bold; } .ty { fill: #adb1b5; font-weight: normal; text-anchor: end; } .r { fill: transparent; stroke: #c3c3c3; stroke-width: 1; } .l { stroke: 1; } .i { fill: #c2c7ce; stroke: #c2c7ce; } .i.ix { fill: #afb3b6; stroke: #000; } .fa { fill: transparent; overflow: visible; } .fa .bg.hover { fill: #f7f7f7; } .c { cy: 12; r: 4; stroke: #d2d2dc; fill: #d2d2dc; } .hr { fill: transparent; stroke: #323c46; stroke-opacity: 0.035; stroke-width: 13; } .dc { stroke: #fa5a3c; fill: #fa5a3c; } .x { stroke: white; stroke-width: 1; } .hl .th { fill: #1b9bff; } .hl .tht {  } .fhl .bg { fill: #e7f4ff; } .fhls .bg {  } .r.hl { stroke: #1b9bff; } .dim { opacity: 0.25; }</style><g class="drawing-wrapper" transform="translate(2, 49.99999999999967) scale(1,1)"><g class="rs"><path d="M 177 112 m -1, 0 a 1,1 0 1,0 2,0 a 1,1 0 1,0 -2,0 M 177 112 m -0.5, 0 a 0.5,0.5 0 1,0 1,0 a 0.5,0.5 0 1,0 -1,0  M177 112 L177 112 189 112 M 177 118 m -1, 0 a 1,1 0 1,0 2,0 a 1,1 0 1,0 -2,0 M 177 118 m -0.5, 0 a 0.5,0.5 0 1,0 1,0 a 0.5,0.5 0 1,0 -1,0  M177 118 L177 118 184 112 177 106 M 177 106 m -1, 0 a 1,1 0 1,0 2,0 a 1,1 0 1,0 -2,0 M 177 106 m -0.5, 0 a 0.5,0.5 0 1,0 1,0 a 0.5,0.5 0 1,0 -1,0  M189 112 Q 211.95 112, 234.89 87.28 T 280.77777777777806 62.555555555555586 M 292.77777777777806 62.555555555555586 m -1, 0 a 1,1 0 1,0 2,0 a 1,1 0 1,0 -2,0 M 292.77777777777806 62.555555555555586 m -0.5, 0 a 0.5,0.5 0 1,0 1,0 a 0.5,0.5 0 1,0 -1,0  M292.77777777777806 62.555555555555586 L292.77777777777806 62.555555555555586 280.77777777777806 62.555555555555586 M286.77777777777806 68.55555555555559 L286.77777777777806 68.55555555555559 286.77777777777806 56.555555555555586" id="h3623363463" class="r"></path><path d="M 177 137 m -1, 0 a 1,1 0 1,0 2,0 a 1,1 0 1,0 -2,0 M 177 137 m -0.5, 0 a 0.5,0.5 0 1,0 1,0 a 0.5,0.5 0 1,0 -1,0  M177 137 L177 137 189 137 M 177 143 m -1, 0 a 1,1 0 1,0 2,0 a 1,1 0 1,0 -2,0 M 177 143 m -0.5, 0 a 0.5,0.5 0 1,0 1,0 a 0.5,0.5 0 1,0 -1,0  M177 143 L177 143 184 137 177 131 M 177 131 m -1, 0 a 1,1 0 1,0 2,0 a 1,1 0 1,0 -2,0 M 177 131 m -0.5, 0 a 0.5,0.5 0 1,0 1,0 a 0.5,0.5 0 1,0 -1,0  M189 137 Q 210.83 137, 232.67 162.56 T 276.33333333333354 188.11111111111103 M 288.33333333333354 188.11111111111103 m -1, 0 a 1,1 0 1,0 2,0 a 1,1 0 1,0 -2,0 M 288.33333333333354 188.11111111111103 m -0.5, 0 a 0.5,0.5 0 1,0 1,0 a 0.5,0.5 0 1,0 -1,0  M288.33333333333354 188.11111111111103 L288.33333333333354 188.11111111111103 276.33333333333354 188.11111111111103 M282.33333333333354 194.11111111111103 L282.33333333333354 194.11111111111103 282.33333333333354 182.11111111111103" id="h2051173921" class="r"></path><path d="M 177 337 m -1, 0 a 1,1 0 1,0 2,0 a 1,1 0 1,0 -2,0 M 177 337 m -0.5, 0 a 0.5,0.5 0 1,0 1,0 a 0.5,0.5 0 1,0 -1,0  M177 337 L177 337 189 337 M 177 343 m -1, 0 a 1,1 0 1,0 2,0 a 1,1 0 1,0 -2,0 M 177 343 m -0.5, 0 a 0.5,0.5 0 1,0 1,0 a 0.5,0.5 0 1,0 -1,0  M177 343 L177 343 184 337 177 331 M 177 331 m -1, 0 a 1,1 0 1,0 2,0 a 1,1 0 1,0 -2,0 M 177 331 m -0.5, 0 a 0.5,0.5 0 1,0 1,0 a 0.5,0.5 0 1,0 -1,0  M189 337 Q 212.36 337, 235.72 350.33 T 282.44444444444497 363.6666666666671 M 294.44444444444497 363.6666666666671 m -1, 0 a 1,1 0 1,0 2,0 a 1,1 0 1,0 -2,0 M 294.44444444444497 363.6666666666671 m -0.5, 0 a 0.5,0.5 0 1,0 1,0 a 0.5,0.5 0 1,0 -1,0  M294.44444444444497 363.6666666666671 L294.44444444444497 363.6666666666671 282.44444444444497 363.6666666666671 M288.44444444444497 369.6666666666671 L288.44444444444497 369.6666666666671 288.44444444444497 357.6666666666671" id="h4182380050" class="r"></path><path d="M 177 362 m -1, 0 a 1,1 0 1,0 2,0 a 1,1 0 1,0 -2,0 M 177 362 m -0.5, 0 a 0.5,0.5 0 1,0 1,0 a 0.5,0.5 0 1,0 -1,0  M177 362 L177 362 189 362 M 177 368 m -1, 0 a 1,1 0 1,0 2,0 a 1,1 0 1,0 -2,0 M 177 368 m -0.5, 0 a 0.5,0.5 0 1,0 1,0 a 0.5,0.5 0 1,0 -1,0  M177 368 L177 368 184 362 177 356 M 177 356 m -1, 0 a 1,1 0 1,0 2,0 a 1,1 0 1,0 -2,0 M 177 356 m -0.5, 0 a 0.5,0.5 0 1,0 1,0 a 0.5,0.5 0 1,0 -1,0  M189 362 Q 212.36 362, 235.72 362.83 T 282.44444444444497 363.6666666666671 M 294.44444444444497 363.6666666666671 m -1, 0 a 1,1 0 1,0 2,0 a 1,1 0 1,0 -2,0 M 294.44444444444497 363.6666666666671 m -0.5, 0 a 0.5,0.5 0 1,0 1,0 a 0.5,0.5 0 1,0 -1,0  M294.44444444444497 363.6666666666671 L294.44444444444497 363.6666666666671 282.44444444444497 363.6666666666671 M288.44444444444497 369.6666666666671 L288.44444444444497 369.6666666666671 288.44444444444497 357.6666666666671" id="h3976606721" class="r"></path><path d="M 177 387 m -1, 0 a 1,1 0 1,0 2,0 a 1,1 0 1,0 -2,0 M 177 387 m -0.5, 0 a 0.5,0.5 0 1,0 1,0 a 0.5,0.5 0 1,0 -1,0  M177 387 L177 387 189 387 M 177 393 m -1, 0 a 1,1 0 1,0 2,0 a 1,1 0 1,0 -2,0 M 177 393 m -0.5, 0 a 0.5,0.5 0 1,0 1,0 a 0.5,0.5 0 1,0 -1,0  M177 393 L177 393 184 387 177 381 M 177 381 m -1, 0 a 1,1 0 1,0 2,0 a 1,1 0 1,0 -2,0 M 177 381 m -0.5, 0 a 0.5,0.5 0 1,0 1,0 a 0.5,0.5 0 1,0 -1,0  M189 387 Q 212.36 387, 235.72 375.33 T 282.44444444444497 363.6666666666671 M 294.44444444444497 363.6666666666671 m -1, 0 a 1,1 0 1,0 2,0 a 1,1 0 1,0 -2,0 M 294.44444444444497 363.6666666666671 m -0.5, 0 a 0.5,0.5 0 1,0 1,0 a 0.5,0.5 0 1,0 -1,0  M294.44444444444497 363.6666666666671 L294.44444444444497 363.6666666666671 282.44444444444497 363.6666666666671 M288.44444444444497 369.6666666666671 L288.44444444444497 369.6666666666671 288.44444444444497 357.6666666666671" id="h4071805649" class="r"></path><path d="M 519.444444444445 62.00000000000033 m -1, 0 a 1,1 0 1,0 2,0 a 1,1 0 1,0 -2,0 M 519.444444444445 62.00000000000033 m -0.5, 0 a 0.5,0.5 0 1,0 1,0 a 0.5,0.5 0 1,0 -1,0  M519.444444444445 62.00000000000033 L519.444444444445 62.00000000000033 507.444444444445 62.00000000000033 M 519.444444444445 68.00000000000033 m -1, 0 a 1,1 0 1,0 2,0 a 1,1 0 1,0 -2,0 M 519.444444444445 68.00000000000033 m -0.5, 0 a 0.5,0.5 0 1,0 1,0 a 0.5,0.5 0 1,0 -1,0  M519.444444444445 68.00000000000033 L519.444444444445 68.00000000000033 512.444444444445 62.00000000000033 519.444444444445 56.00000000000033 M 519.444444444445 56.00000000000033 m -1, 0 a 1,1 0 1,0 2,0 a 1,1 0 1,0 -2,0 M 519.444444444445 56.00000000000033 m -0.5, 0 a 0.5,0.5 0 1,0 1,0 a 0.5,0.5 0 1,0 -1,0  M507.444444444445 62.00000000000033 Q 487.78 62.00000000000033, 468.11 62.28 T 428.78 62.555555555555586 M 416.78 62.555555555555586 m -1, 0 a 1,1 0 1,0 2,0 a 1,1 0 1,0 -2,0 M 416.78 62.555555555555586 m -0.5, 0 a 0.5,0.5 0 1,0 1,0 a 0.5,0.5 0 1,0 -1,0  M416.78 62.555555555555586 L416.78 62.555555555555586 428.78 62.555555555555586 M422.78 68.55555555555559 L422.78 68.55555555555559 422.78 56.555555555555586" id="h2093553961" class="r"></path><path d="M 718.44 162.0000000000003 m -1, 0 a 1,1 0 1,0 2,0 a 1,1 0 1,0 -2,0 M 718.44 162.0000000000003 m -0.5, 0 a 0.5,0.5 0 1,0 1,0 a 0.5,0.5 0 1,0 -1,0  M718.44 162.0000000000003 L718.44 162.0000000000003 730.44 162.0000000000003 M 718.44 168.0000000000003 m -1, 0 a 1,1 0 1,0 2,0 a 1,1 0 1,0 -2,0 M 718.44 168.0000000000003 m -0.5, 0 a 0.5,0.5 0 1,0 1,0 a 0.5,0.5 0 1,0 -1,0  M718.44 168.0000000000003 L718.44 168.0000000000003 725.44 162.0000000000003 718.44 156.0000000000003 M 718.44 156.0000000000003 m -1, 0 a 1,1 0 1,0 2,0 a 1,1 0 1,0 -2,0 M 718.44 156.0000000000003 m -0.5, 0 a 0.5,0.5 0 1,0 1,0 a 0.5,0.5 0 1,0 -1,0  M730.44 162.0000000000003 Q 752.61 162.0000000000003, 774.78 130.61 T 819.1111111111114 99.22222222222175 M 831.1111111111114 99.22222222222175 m -1, 0 a 1,1 0 1,0 2,0 a 1,1 0 1,0 -2,0 M 831.1111111111114 99.22222222222175 m -0.5, 0 a 0.5,0.5 0 1,0 1,0 a 0.5,0.5 0 1,0 -1,0  M831.1111111111114 99.22222222222175 L831.1111111111114 99.22222222222175 819.1111111111114 99.22222222222175 M825.1111111111114 105.22222222222175 L825.1111111111114 105.22222222222175 825.1111111111114 93.22222222222175" id="h3227208911" class="r"></path><path d="M 718.44 212.0000000000003 m -1, 0 a 1,1 0 1,0 2,0 a 1,1 0 1,0 -2,0 M 718.44 212.0000000000003 m -0.5, 0 a 0.5,0.5 0 1,0 1,0 a 0.5,0.5 0 1,0 -1,0  M718.44 212.0000000000003 L718.44 212.0000000000003 730.44 212.0000000000003 M 718.44 218.0000000000003 m -1, 0 a 1,1 0 1,0 2,0 a 1,1 0 1,0 -2,0 M 718.44 218.0000000000003 m -0.5, 0 a 0.5,0.5 0 1,0 1,0 a 0.5,0.5 0 1,0 -1,0  M718.44 218.0000000000003 L718.44 218.0000000000003 725.44 212.0000000000003 718.44 206.0000000000003 M 718.44 206.0000000000003 m -1, 0 a 1,1 0 1,0 2,0 a 1,1 0 1,0 -2,0 M 718.44 206.0000000000003 m -0.5, 0 a 0.5,0.5 0 1,0 1,0 a 0.5,0.5 0 1,0 -1,0  M730.44 212.0000000000003 Q 759 212.0000000000003, 787.55 232.28 T 844.6666666666671 252.55555555555566 M 856.6666666666671 252.55555555555566 m -1, 0 a 1,1 0 1,0 2,0 a 1,1 0 1,0 -2,0 M 856.6666666666671 252.55555555555566 m -0.5, 0 a 0.5,0.5 0 1,0 1,0 a 0.5,0.5 0 1,0 -1,0  M856.6666666666671 252.55555555555566 L856.6666666666671 252.55555555555566 844.6666666666671 252.55555555555566 M850.6666666666671 258.55555555555566 L850.6666666666671 258.55555555555566 850.6666666666671 246.55555555555566" id="h3631734010" class="r"></path></g><g class="hrs"></g><g class="ts"><svg width="147" height="450" x="30" y="30" id="h816025053" class="t"><rect height="40" width="147" class="th"></rect><text x="13" y="25" class="tht">climber</text><rect height="410" width="147" class="t-bg" y="40"></rect><text x="13" y="61" class="tf pk">user_id<tspan x="134" class="ty">string</tspan></text><path d="M7,14A2,2 0 0,1 5,12A2,2 0 0,1 7,10A2,2 0 0,1 9,12A2,2 0 0,1 7,14M12.65,10C11.83,7.67 9.61,6 7, 6A6, 6 0 0, 0 1, 12A6, 6 0 0, 0 7, 18C9.61, 18 11.83, 16.33 12.65, 14H17V18H21V14H23V10H12.65Z" class="i pk" transform="translate(83, 48) scale(0.65)"></path><text x="13" y="86" class="tf fk">country<tspan x="134" class="ty">string</tspan></text><text x="13" y="111" class="tf fk">sex<tspan x="134" class="ty">int</tspan></text><text x="13" y="136" class="tf">height<tspan x="134" class="ty">strin</tspan></text><text x="13" y="161" class="tf">weight<tspan x="134" class="ty">int</tspan></text><text x="13" y="186" class="tf">age<tspan x="134" class="ty">int</tspan></text><text x="13" y="211" class="tf">years_cl<tspan x="134" class="ty">int</tspan></text><text x="13" y="236" class="tf">date_first<tspan x="134" class="ty">date</tspan></text><text x="13" y="261" class="tf">date_last<tspan x="134" class="ty">date</tspan></text><text x="13" y="286" class="tf">grades_count<tspan x="134" class="ty">int</tspan></text><text x="13" y="311" class="tf fk">grades_first<tspan x="134" class="ty">float</tspan></text><text x="13" y="336" class="tf fk">grades_last<tspan x="134" class="ty">float</tspan></text><text x="13" y="361" class="tf fk">grades_max<tspan x="134" class="ty">float</tspan></text><text x="13" y="386" class="tf">grades_mean<tspan x="134" class="ty">float</tspan></text><text x="13" y="411" class="tf">year_first<tspan x="134" class="ty">int</tspan></text><text x="13" y="436" class="tf">year_last<tspan x="134" class="ty">int</tspan></text></svg><svg width="138" height="100" x="294.44444444444497" y="306.6666666666671" id="h2632643378" class="t"><rect height="40" width="138" class="th"></rect><text x="13" y="25" class="tht">grades_cov</text><rect height="60" width="138" class="t-bg" y="40"></rect><text x="13" y="61" class="tf pk">grade_id<tspan x="125" class="ty">float</tspan></text><path d="M7,14A2,2 0 0,1 5,12A2,2 0 0,1 7,10A2,2 0 0,1 9,12A2,2 0 0,1 7,14M12.65,10C11.83,7.67 9.61,6 7, 6A6, 6 0 0, 0 1, 12A6, 6 0 0, 0 7, 18C9.61, 18 11.83, 16.33 12.65, 14H17V18H21V14H23V10H12.65Z" class="i pk" transform="translate(82, 48) scale(0.65)"></path><text x="13" y="86" class="tf">grade_fra<tspan x="125" class="ty">float</tspan></text></svg><svg width="124" height="100" x="292.77777777777806" y="5.555555555555584" id="h3233356384" class="t"><rect height="40" width="124" class="th"></rect><text x="13" y="25" class="tht">country</text><rect height="60" width="124" class="t-bg" y="40"></rect><text x="13" y="61" class="tf pk">code<tspan x="111" class="ty">string</tspan></text><path d="M7,14A2,2 0 0,1 5,12A2,2 0 0,1 7,10A2,2 0 0,1 9,12A2,2 0 0,1 7,14M12.65,10C11.83,7.67 9.61,6 7, 6A6, 6 0 0, 0 1, 12A6, 6 0 0, 0 7, 18C9.61, 18 11.83, 16.33 12.65, 14H17V18H21V14H23V10H12.65Z" class="i pk" transform="translate(60, 48) scale(0.65)"></path><text x="13" y="86" class="tf">name<tspan x="111" class="ty">string</tspan></text></svg><svg width="199" height="275" x="519.444444444445" y="-19.999999999999677" id="h2494218362" class="t"><rect height="40" width="199" class="th"></rect><text x="13" y="25" class="tht">routes</text><rect height="235" width="199" class="t-bg" y="40"></rect><text x="13" y="61" class="tf pk">name_id</text><path d="M7,14A2,2 0 0,1 5,12A2,2 0 0,1 7,10A2,2 0 0,1 9,12A2,2 0 0,1 7,14M12.65,10C11.83,7.67 9.61,6 7, 6A6, 6 0 0, 0 1, 12A6, 6 0 0, 0 7, 18C9.61, 18 11.83, 16.33 12.65, 14H17V18H21V14H23V10H12.65Z" class="i pk" transform="translate(171, 48) scale(0.65)"></path><text x="13" y="86" class="tf fk">country<tspan x="186" class="ty">string</tspan></text><text x="13" y="111" class="tf">crag<tspan x="186" class="ty">string</tspan></text><text x="13" y="136" class="tf">sector<tspan x="186" class="ty">string</tspan></text><text x="13" y="161" class="tf">name<tspan x="186" class="ty">string</tspan></text><text x="13" y="186" class="tf fk">tall_recommend_sum<tspan x="186" class="ty">string</tspan></text><text x="13" y="211" class="tf">grade_mean<tspan x="186" class="ty">float</tspan></text><text x="13" y="236" class="tf fk">cluster<tspan x="186" class="ty">string</tspan></text><text x="13" y="261" class="tf">rating_tot<tspan x="186" class="ty">string</tspan></text></svg><svg width="151" height="100" x="856.6666666666671" y="195.55555555555566" id="h3393345417" class="t"><rect height="40" width="151" class="th"></rect><text x="13" y="25" class="tht">cluster</text><rect height="60" width="151" class="t-bg" y="40"></rect><text x="13" y="61" class="tf pk">cluster_id<tspan x="138" class="ty">string</tspan></text><path d="M7,14A2,2 0 0,1 5,12A2,2 0 0,1 7,10A2,2 0 0,1 9,12A2,2 0 0,1 7,14M12.65,10C11.83,7.67 9.61,6 7, 6A6, 6 0 0, 0 1, 12A6, 6 0 0, 0 7, 18C9.61, 18 11.83, 16.33 12.65, 14H17V18H21V14H23V10H12.65Z" class="i pk" transform="translate(87, 48) scale(0.65)"></path><text x="13" y="86" class="tf">description<tspan x="138" class="ty">string</tspan></text></svg><svg width="199" height="150" x="831.1111111111114" y="-7.777777777778262" id="h1071099154" class="t"><rect height="40" width="199" class="th"></rect><text x="13" y="25" class="tht">tall_recommend_sum</text><rect height="110" width="199" class="t-bg" y="40"></rect><text x="13" y="61" class="tf pk">recomend_id<tspan x="186" class="ty">int</tspan></text><path d="M7,14A2,2 0 0,1 5,12A2,2 0 0,1 7,10A2,2 0 0,1 9,12A2,2 0 0,1 7,14M12.65,10C11.83,7.67 9.61,6 7, 6A6, 6 0 0, 0 1, 12A6, 6 0 0, 0 7, 18C9.61, 18 11.83, 16.33 12.65, 14H17V18H21V14H23V10H12.65Z" class="i pk" transform="translate(153, 48) scale(0.65)"></path><text x="13" y="86" class="tf fk">height<tspan x="186" class="ty">string</tspan></text><text x="13" y="111" class="tf fk">tall_recommend_sum<tspan x="186" class="ty">string</tspan></text><text x="13" y="136" class="tf">easy<tspan x="186" class="ty">bool</tspan></text></svg><svg width="135" height="100" x="288.33333333333354" y="131.11111111111103" id="h3976859243" class="t"><rect height="40" width="135" class="th"></rect><text x="13" y="25" class="tht">sex</text><rect height="60" width="135" class="t-bg" y="40"></rect><text x="13" y="61" class="tf pk">sex_code<tspan x="122" class="ty">int</tspan></text><path d="M7,14A2,2 0 0,1 5,12A2,2 0 0,1 7,10A2,2 0 0,1 9,12A2,2 0 0,1 7,14M12.65,10C11.83,7.67 9.61,6 7, 6A6, 6 0 0, 0 1, 12A6, 6 0 0, 0 7, 18C9.61, 18 11.83, 16.33 12.65, 14H17V18H21V14H23V10H12.65Z" class="i pk" transform="translate(89, 48) scale(0.65)"></path><text x="13" y="86" class="tf">sex_name<tspan x="122" class="ty">string</tspan></text></svg></g></g><text class="qdbd-link" x="10" y="20">www.quickdatabasediagrams.com</text></svg>